# xmcd CD database file
#
# Track frame offsets:
#	150
#	13386
#	27561
#	38806
#	49613
#	60675
#	72809
#	88600
#	102698
#	114938
#	126518
#	137988
#	148116
#	159692
#	172352
#	189803
#	203932
#	218011
#
# Disc length: 3087 seconds
#
# Revision: 2
# Processed by: cddbd v1.4b41PL1 Copyright (c) Steve Scherf et al.
# Submitted via: Feurio! 1.50.2ß - http://www.feurio.com
#
DISCID=170c0d12
DTITLE=Ronny - Stimme der Prärie CD 2
DYEAR=1900
DGENRE=
TTITLE0=Good morning, my sweet Adalita
TTITLE1=Billy Joe
TTITLE2=Schwarze Reiter ziehen durch die Nacht
TTITLE3=Weit von zuhaus
TTITLE4=Cheerio
TTITLE5=Es geht alles vorbei
TTITLE6=Keiner kann den Kreis durchbrechen
TTITLE7=Oh Muchachos
TTITLE8=Vergiß mich, mein Liebling
TTITLE9=Ein Stern geht auf
TTITLE10=Ihr Mädchen so schön
TTITLE11=Eine kleine Träne
TTITLE12=Anna Maria
TTITLE13=Sweetheart, es war schön
TTITLE14=Adios, my love
TTITLE15=Tomm Dooley
TTITLE16=Nur noch einmal nach Haus
TTITLE17=Darling, good night
EXTD=Seine schönsten Westernsongs
EXTT0=
EXTT1=
EXTT2=
EXTT3=
EXTT4=
EXTT5=
EXTT6=
EXTT7=
EXTT8=
EXTT9=
EXTT10=
EXTT11=
EXTT12=
EXTT13=
EXTT14=
EXTT15=
EXTT16=
EXTT17=
PLAYORDER=
